<svg width="24" height="29" viewBox="0 0 24 29" fill="none" xmlns="http://www.w3.org/2000/svg">
<path d="M19.6945 15.3109C19.6825 13.0845 20.6811 11.404 22.7025 10.1664C21.5715 8.53455 19.863 7.6366 17.6069 7.46069C15.4712 7.29079 13.1369 8.71645 12.2827 8.71645C11.3803 8.71645 9.31075 7.52133 7.6864 7.52133C4.32923 7.57596 0.761719 10.221 0.761719 15.6021C0.761719 17.1916 1.05047 18.8336 1.62807 20.5282C2.39818 22.7546 5.17763 28.2146 8.07734 28.1235C9.59344 28.0871 10.6643 27.0376 12.6375 27.0376C14.6108 27.0376 15.5433 28.1235 17.2338 28.1235C20.1577 28.0811 22.6724 23.1185 23.4063 20.8861C19.4838 19.0237 19.6944 15.4261 19.6944 15.3108L19.6945 15.3109ZM16.2894 5.34952C17.9317 3.38394 17.7814 1.59426 17.7331 0.951172C16.2832 1.03612 14.6048 1.94607 13.6481 3.06845C12.5953 4.26967 11.9757 5.75597 12.108 7.43038C13.6782 7.55175 15.1101 6.73876 16.2893 5.34952H16.2894Z" fill="white"/>
</svg>
