<svg width="22" height="23" viewBox="0 0 22 23" fill="none" xmlns="http://www.w3.org/2000/svg">
<rect x="0.5" y="3.78516" width="21" height="15.4286" rx="3.5" fill="white" stroke="#F5F5F5"/>
<mask id="mask0_1326_260" style="mask-type:alpha" maskUnits="userSpaceOnUse" x="0" y="3" width="22" height="17">
<rect x="0.5" y="3.78516" width="21" height="15.4286" rx="3.5" fill="white" stroke="white"/>
</mask>
<g mask="url(#mask0_1326_260)">
<ellipse cx="10.9987" cy="11.4993" rx="3.66667" ry="3.83333" fill="#E01B41"/>
<mask id="mask1_1326_260" style="mask-type:alpha" maskUnits="userSpaceOnUse" x="7" y="7" width="8" height="9">
<ellipse cx="10.9987" cy="11.4993" rx="3.66667" ry="3.83333" fill="white"/>
</mask>
<g mask="url(#mask1_1326_260)">
<path fill-rule="evenodd" clip-rule="evenodd" d="M7.3328 12.0466C8.38041 13.0734 9.95184 13.6895 10.9995 12.0466C12.0471 10.4037 14.1423 10.4037 14.6661 12.0466C15.1899 13.6895 14.6661 15.3323 14.6661 15.3323H7.3328C7.3328 15.3323 6.28518 11.0198 7.3328 12.0466Z" fill="#0E4B9C"/>
</g>
<path opacity="0.75" fill-rule="evenodd" clip-rule="evenodd" d="M16.5643 6.24284C16.3137 6.39406 16.2253 6.72432 16.3668 6.98048L17.4259 8.89833C17.5674 9.1545 17.8852 9.23957 18.1357 9.08835C18.3862 8.93713 18.4746 8.60688 18.3332 8.35071L17.274 6.43287C17.1326 6.1767 16.8148 6.09162 16.5643 6.24284ZM15.2034 7.06427C14.9528 7.21549 14.8644 7.54575 15.0059 7.80191L16.065 9.71976C16.2065 9.97593 16.5243 10.061 16.7748 9.90978C17.0253 9.75856 17.1137 9.42831 16.9723 9.17214L15.9131 7.25429C15.7717 6.99813 15.4539 6.91305 15.2034 7.06427ZM3.66507 14.6472C3.5236 14.391 3.61202 14.0607 3.86255 13.9095C4.11309 13.7583 4.43087 13.8434 4.57234 14.0995L5.63146 16.0174C5.77293 16.2735 5.68452 16.6038 5.43398 16.755C5.18345 16.9062 4.86567 16.8212 4.7242 16.565L3.66507 14.6472ZM5.22345 13.0881C4.97292 13.2393 4.8845 13.5696 5.02597 13.8257L6.0851 15.7436C6.22656 15.9997 6.54434 16.0848 6.79488 15.9336C7.04541 15.7824 7.13383 15.4521 6.99236 15.1959L5.93323 13.2781C5.79177 13.0219 5.47398 12.9369 5.22345 13.0881ZM16.065 13.2781C16.2065 13.0219 16.5243 12.9369 16.7748 13.0881C17.0253 13.2393 17.1137 13.5696 16.9723 13.8257L15.9131 15.7436C15.7717 15.9997 15.4539 16.0848 15.2034 15.9336C14.9528 15.7824 14.8644 15.4521 15.0059 15.196L16.065 13.2781ZM18.1357 13.9095C17.8852 13.7583 17.5674 13.8434 17.4259 14.0995L16.3668 16.0174C16.2253 16.2735 16.3137 16.6038 16.5643 16.755C16.8148 16.9062 17.1326 16.8212 17.274 16.565L18.3332 14.6472C18.4746 14.391 18.3862 14.0607 18.1357 13.9095ZM4.7242 6.43287C4.86567 6.1767 5.18345 6.09162 5.43398 6.24284C5.68452 6.39406 5.77293 6.72432 5.63146 6.98048L4.57234 8.89833C4.43087 9.1545 4.11309 9.23957 3.86255 9.08835C3.61202 8.93713 3.5236 8.60688 3.66507 8.35071L4.7242 6.43287ZM6.79488 7.06427C6.54434 6.91305 6.22656 6.99813 6.0851 7.25429L5.02597 9.17214C4.8845 9.42831 4.97292 9.75856 5.22345 9.90978C5.47398 10.061 5.79177 9.97593 5.93323 9.71976L6.99236 7.80191C7.13383 7.54575 7.04541 7.21549 6.79488 7.06427Z" fill="#262626"/>
</g>
</svg>
