<svg width="21" height="21" viewBox="0 0 21 21" fill="none" xmlns="http://www.w3.org/2000/svg">
<path d="M10.3549 4.02423C10.9802 4.02423 11.4871 3.51731 11.4871 2.892C11.4871 2.26668 10.9802 1.75977 10.3549 1.75977C9.72957 1.75977 9.22266 2.26668 9.22266 2.892C9.22266 3.51731 9.72957 4.02423 10.3549 4.02423Z" stroke="#8B8999" stroke-width="2" stroke-linecap="round" stroke-linejoin="round"/>
<path d="M10.3549 11.95C10.9802 11.95 11.4871 11.4431 11.4871 10.8178C11.4871 10.1925 10.9802 9.68555 10.3549 9.68555C9.72957 9.68555 9.22266 10.1925 9.22266 10.8178C9.22266 11.4431 9.72957 11.95 10.3549 11.95Z" stroke="#8B8999" stroke-width="2" stroke-linecap="round" stroke-linejoin="round"/>
<path d="M10.3549 19.8758C10.9802 19.8758 11.4871 19.3689 11.4871 18.7436C11.4871 18.1182 10.9802 17.6113 10.3549 17.6113C9.72957 17.6113 9.22266 18.1182 9.22266 18.7436C9.22266 19.3689 9.72957 19.8758 10.3549 19.8758Z" stroke="#8B8999" stroke-width="2" stroke-linecap="round" stroke-linejoin="round"/>
<path d="M18.2807 4.02423C18.906 4.02423 19.4129 3.51731 19.4129 2.892C19.4129 2.26668 18.906 1.75977 18.2807 1.75977C17.6554 1.75977 17.1484 2.26668 17.1484 2.892C17.1484 3.51731 17.6554 4.02423 18.2807 4.02423Z" stroke="#8B8999" stroke-width="2" stroke-linecap="round" stroke-linejoin="round"/>
<path d="M18.2807 11.95C18.906 11.95 19.4129 11.4431 19.4129 10.8178C19.4129 10.1925 18.906 9.68555 18.2807 9.68555C17.6554 9.68555 17.1484 10.1925 17.1484 10.8178C17.1484 11.4431 17.6554 11.95 18.2807 11.95Z" stroke="#8B8999" stroke-width="2" stroke-linecap="round" stroke-linejoin="round"/>
<path d="M18.2807 19.8758C18.906 19.8758 19.4129 19.3689 19.4129 18.7436C19.4129 18.1182 18.906 17.6113 18.2807 17.6113C17.6554 17.6113 17.1484 18.1182 17.1484 18.7436C17.1484 19.3689 17.6554 19.8758 18.2807 19.8758Z" stroke="#8B8999" stroke-width="2" stroke-linecap="round" stroke-linejoin="round"/>
<path d="M2.42911 4.02423C3.05442 4.02423 3.56134 3.51731 3.56134 2.892C3.56134 2.26668 3.05442 1.75977 2.42911 1.75977C1.80379 1.75977 1.29688 2.26668 1.29688 2.892C1.29688 3.51731 1.80379 4.02423 2.42911 4.02423Z" stroke="#8B8999" stroke-width="2" stroke-linecap="round" stroke-linejoin="round"/>
<path d="M2.42911 11.95C3.05442 11.95 3.56134 11.4431 3.56134 10.8178C3.56134 10.1925 3.05442 9.68555 2.42911 9.68555C1.80379 9.68555 1.29688 10.1925 1.29688 10.8178C1.29688 11.4431 1.80379 11.95 2.42911 11.95Z" stroke="#8B8999" stroke-width="2" stroke-linecap="round" stroke-linejoin="round"/>
<path d="M2.42911 19.8758C3.05442 19.8758 3.56134 19.3689 3.56134 18.7436C3.56134 18.1182 3.05442 17.6113 2.42911 17.6113C1.80379 17.6113 1.29688 18.1182 1.29688 18.7436C1.29688 19.3689 1.80379 19.8758 2.42911 19.8758Z" stroke="#8B8999" stroke-width="2" stroke-linecap="round" stroke-linejoin="round"/>
</svg>
